<svg xmlns="http://www.w3.org/2000/svg" width="1055" height="381" viewBox="0 0 1055 381"><g fill="none" fill-rule="evenodd"><path stroke="#FF0" stroke-linecap="round" stroke-linejoin="round" stroke-width=".709" d="M250.8 272.8c0-3.9-3.2-7.1-7.1-7.1-3.9 0-7.1 3.2-7.1 7.1 0 3.9 3.2 7.1 7.1 7.1 3.9 0 7.1-3.2 7.1-7.1z"/><path stroke="#7FDFFF" stroke-linecap="round" stroke-linejoin="round" stroke-width=".709" d="M243.7 265.7v14.2m-7-7.1h14.1"/><path stroke="#FF0" stroke-linecap="round" stroke-linejoin="round" stroke-width=".709" d="M236.7 272.8l7-7.1m-6.8 4.8l4.6-4.5m-2.9 6.8l5.1-5.1m-1.1 5.1l1.1-1.1m0 2.2l1.2-1.1m-1.2 2.8l2.9-2.8m-2.9 5.1l5.1-5.1m-5.3 7.1l7-7.1m-4.5 6.8l4.5-4.5m-9.9-2.3l3.1-3.1m-134.6 3.1c0-3.9-3.2-7.1-7.1-7.1-3.9 0-7.1 3.2-7.1 7.1 0 3.9 3.2 7.1 7.1 7.1 4 0 7.1-3.2 7.1-7.1z"/><path stroke="#7FDFFF" stroke-linecap="round" stroke-linejoin="round" stroke-width=".709" d="M102 265.7v14.2m-7-7.1h14.1"/><path stroke="#FF0" stroke-linecap="round" stroke-linejoin="round" stroke-width=".709" d="M95 272.8l7-7.1m-6.8 4.8l4.6-4.5m-2.9 6.8l5.1-5.1m-1.1 5.1l1.1-1.1m0 2.2l1.2-1.1m-1.2 2.8l2.9-2.8m-2.9 5.1l5.1-5.1m-5.3 7.1l7-7.1m-4.5 6.8l4.5-4.5m-9.9-2.3l3.1-3.1"/><path fill="#000" fill-rule="nonzero" d="M1054.2 34.8v311.7c0 18.8-15.2 34-34 34H34c-18.8 0-34-15.2-34-34V34.8C0 16 15.2.8 34 .8h986.2c18.8 0 34 15.2 34 34z"/><path fill="#FFF" fill-rule="nonzero" d="M5.7 346.5c0 15.7 12.7 28.3 28.3 28.3h986.2c15.7 0 28.3-12.7 28.3-28.3V34.8c0-15.7-12.7-28.3-28.3-28.3H34C18.3 6.5 5.7 19.2 5.7 34.8v311.7z"/><path stroke="#FF0" stroke-linecap="round" stroke-linejoin="round" stroke-width=".709" d="M392.5 272.8c0-3.9-3.2-7.1-7.1-7.1-3.9 0-7.1 3.2-7.1 7.1 0 3.9 3.2 7.1 7.1 7.1 3.9 0 7.1-3.2 7.1-7.1z"/><path stroke="#7FDFFF" stroke-linecap="round" stroke-linejoin="round" stroke-width=".709" d="M385.4 265.7v14.2m-7.1-7.1h14.2"/><path stroke="#FF0" stroke-linecap="round" stroke-linejoin="round" stroke-width=".709" d="M378.3 272.8l7.1-7.1m-6.8 4.8l4.6-4.5m-2.9 6.8l5.1-5.1m-1.1 5.1l1.1-1.1m0 2.2l1.2-1.1m-1.2 2.8l2.9-2.8m-2.9 5.1l5.1-5.1m-5.4 7.1l7.1-7.1m-4.5 6.8l4.5-4.5m-9.9-2.3l3.1-3.1m290.5 3.1c0-3.9-3.2-7.1-7.1-7.1-3.9 0-7.1 3.2-7.1 7.1 0 3.9 3.2 7.1 7.1 7.1 3.9 0 7.1-3.2 7.1-7.1z"/><path stroke="#7FDFFF" stroke-linecap="round" stroke-linejoin="round" stroke-width=".709" d="M668.8 265.7v14.2m-7.1-7.1h14.2"/><path stroke="#FF0" stroke-linecap="round" stroke-linejoin="round" stroke-width=".709" d="M661.7 272.8l7.1-7.1m-6.8 4.8l4.5-4.5m-2.8 6.8l5.1-5.1m-1.1 5.1l1.1-1.1m0 2.2l1.1-1.1m-1.1 2.8l2.8-2.8m-2.8 5.1l5.1-5.1m-5.4 7.1l7.1-7.1m-4.5 6.8l4.5-4.5m-9.9-2.3l3.1-3.1m148.8 3.1c0-3.9-3.2-7.1-7.1-7.1-3.9 0-7.1 3.2-7.1 7.1 0 3.9 3.2 7.1 7.1 7.1 3.9 0 7.1-3.2 7.1-7.1z"/><path stroke="#7FDFFF" stroke-linecap="round" stroke-linejoin="round" stroke-width=".709" d="M810.5 265.7v14.2m-7.1-7.1h14.2"/><path stroke="#FF0" stroke-linecap="round" stroke-linejoin="round" stroke-width=".709" d="M803.4 272.8l7.1-7.1m-6.8 4.8l4.5-4.5m-2.8 6.8l5.1-5.1m-1.1 5.1l1.1-1.1m0 2.2l1.1-1.1m-1.1 2.8l2.8-2.8m-2.8 5.1l5.1-5.1m-5.4 7.1l7.1-7.1m-4.5 6.8l4.5-4.5m-9.9-2.3l3.1-3.1m148.8 3.1c0-3.9-3.2-7.1-7.1-7.1-3.9 0-7.1 3.2-7.1 7.1 0 3.9 3.2 7.1 7.1 7.1 3.9 0 7.1-3.2 7.1-7.1z"/><path stroke="#7FDFFF" stroke-linecap="round" stroke-linejoin="round" stroke-width=".709" d="M952.2 265.7v14.2m-7.1-7.1h14.2"/><path stroke="#FF0" stroke-linecap="round" stroke-linejoin="round" stroke-width=".709" d="M945.1 272.8l7.1-7.1m-6.8 4.8l4.5-4.5m-2.8 6.8l5.1-5.1m-1.1 5.1l1.1-1.1m0 2.2l1.1-1.1m-1.1 2.8l2.8-2.8m-2.8 5.1l5.1-5.1m-5.4 7.1l7.1-7.1m-4.5 6.8l4.5-4.5m-9.9-2.3l3.1-3.1"/><path fill="#000" fill-rule="nonzero" d="M17.3 34.8c0-9.4 7.6-17 17-17h986.1c9.4 0 17 7.6 17 17v311.7c0 9.4-7.6 17-17 17H34.3c-9.4 0-17-7.6-17-17V34.8"/><path fill="#FFF" fill-rule="nonzero" d="M494.9 77.7l-.4 1-.6.9-.7.8-.9.7-1 .5-1.1.3-1.1.1-1.1-.1-1-.3-1-.5-.9-.7-.7-.8-.6-.9-.4-1v.1L472 38.9v.2l-.2-.8v-.7l.2-.7.2-.7.4-.6.5-.6.5-.4.7-.4.7-.2.7-.1.8.1.7.2.6.3.6.4.5.6.4.6.3.7.1-.1 5.7 19.2-.1.1.3.7.3.6.5.5.6.5.7.3.7.2.7.1.8-.1.7-.2.6-.3.6-.5.5-.5.4-.6.3-.7v-.1l5.7-19.2-.1.1.3-.7.4-.7.5-.5.6-.4.7-.4.7-.2h.8l.7.1.7.2.7.3.6.5.5.5.3.7.3.7.1.7v.7l-.2.6L495 77.8zM530.6 38l-.1-.8-.2-.8-.4-.7-.5-.6-.6-.5-.7-.4-.7-.2-.8-.1-.8.1-.8.2-.7.4-.6.5-.5.6-.3.7-.3.8v.8l-.1.1V78l.1.1v.7l.3.8.3.7.5.6.6.5.7.4.8.2.8.1.8-.1.7-.2.7-.4.6-.5.5-.6.4-.7.2-.8.1-.7.1-.1V38.1l-.1-.1m45.9 6.7l-1.3-2.7-1.7-2.5-2.2-2.1-2.5-1.6-2.8-1.2-3-.6h-3l-3 .5-2.8 1.1-2.6 1.6-2.2 2.1-1.8 2.4-1.3 2.7-.8 2.9-.1.1v21.3h.1l.8 2.9 1.3 2.7 1.8 2.5 2.2 2 2.6 1.6 2.8 1.1 3 .5h3l3-.6 2.8-1.2 2.5-1.6 2.2-2.1 1.7-2.5 1.3-2.7.2-.7v-.8l-.1-.7-.2-.7-.4-.6-.4-.6-.6-.5-.6-.4-.7-.2-.8-.1h-.7l-.7.2-.7.3-.6.4-.5.5-.5.6-.3.7-.6 1.3-.9 1.2-1 1-1.2.9-1.4.5-1.4.4h-1.5l-1.4-.2-1.4-.5-1.3-.7-1.2-.9-.9-1.2-.7-1.2-.5-1.4.2-.1V48.3l-.2-.2.5-1.4.7-1.2.9-1.2 1.2-.9 1.3-.7 1.3-.5 1.5-.2h1.5l1.4.4 1.4.5 1.2.9 1 1 .9 1.2.6 1.3.3.7.5.6.5.5.6.4.7.3.7.2h.7l.8-.1.7-.2.6-.4.6-.5.4-.5.4-.7.2-.7.1-.7v-.8l-.2-.7m10 262.4v2.7M45.4 37.6c0-4.7-3.8-8.5-8.5-8.5s-8.5 3.8-8.5 8.5 3.8 8.5 8.5 8.5 8.5-3.8 8.5-8.5zm192.7 0c0-4.7-3.8-8.5-8.5-8.5s-8.5 3.8-8.5 8.5 3.8 8.5 8.5 8.5 8.5-3.8 8.5-8.5zm63.7 0c0-4.7-3.8-8.5-8.5-8.5s-8.5 3.8-8.5 8.5 3.8 8.5 8.5 8.5 8.5-3.8 8.5-8.5zm467.6 0c0-4.7-3.8-8.5-8.5-8.5s-8.5 3.8-8.5 8.5 3.8 8.5 8.5 8.5 8.5-3.8 8.5-8.5zm63.8 0c0-4.7-3.8-8.5-8.5-8.5s-8.5 3.8-8.5 8.5 3.8 8.5 8.5 8.5 8.5-3.8 8.5-8.5zm192.7 0c0-4.7-3.8-8.5-8.5-8.5s-8.5 3.8-8.5 8.5 3.8 8.5 8.5 8.5 8.5-3.8 8.5-8.5zM45.4 343.7c0-4.7-3.8-8.5-8.5-8.5s-8.5 3.8-8.5 8.5 3.8 8.5 8.5 8.5 8.5-3.8 8.5-8.5zm980.5 0c0-4.7-3.8-8.5-8.5-8.5s-8.5 3.8-8.5 8.5 3.8 8.5 8.5 8.5 8.5-3.8 8.5-8.5z"/></g></svg>